<?xml version="1.0" encoding="UTF-8"?>
<svg id="Layer_1" xmlns="http://www.w3.org/2000/svg" viewBox="0 0 299.95 298.05">
  <defs>
    <style>
      .cls-1 {
        fill: #ed1c24;
      }
    </style>
  </defs>
  <path class="cls-1" d="M130.63,97.11c1.17-.18,2.31-.35,3.45-.54,7.24-1.17,12.09-3.79,14.41-7.8,2.19-3.79,2.13-8.82-.19-14.93-3.28-8.67-3.34-16.29-.18-25.49,1.79-5.21,1.39-9.88-1.14-13.51-2.75-3.94-7.76-6.19-14.1-6.33-4.99-.11-10.05-.08-14.96-.05l-3.49.02c-8.03.04-13.59,2.11-16.51,6.16-2.71,3.75-3,8.99-.86,15.57,2.43,7.48,2.31,15.3-.35,22.61-2.5,6.87-2.6,12.1-.29,15.98,2.45,4.13,7.68,6.76,15.98,8.03l1.82.28c1.36.21,2.45,1.27,2.7,2.65,2.11,11.43,3.29,12,15.36,14.61l.87.19c2.25.49,5.35,3.8,5.82,6.22.76,3.92.4,6.72-1.1,8.55-1.67,2.04-4.9,3.04-9.86,3.07-8.93.06-18,.05-26.78.05-15.38,0-31.29,0-46.93.31-7.76.16-15.55,2.13-21.46,3.83-3.78,1.09-6.16,3.09-7.1,5.94-.56,1.72-.11,3.52,1.21,4.82.96.95,2.22,1.45,3.5,1.45.54,0,1.09-.09,1.62-.27.62-.21,1.23-.43,1.84-.64,4.78-1.68,9.29-3.27,13.86-3.47,18.08-.81,36.49-1.12,54.3-1.41,7.4-.12,15.06-.25,22.58-.41.71-.02,1.42-.02,2.13-.03,2.92-.03,5.94-.06,8.84-.64,10.96-2.2,14.71-8.25,13.81-22.31-.7-11.05-4.68-14.99-15.77-15.63-4.51-.26-5.45-1.69-5.77-3.06-.19-.81-.03-1.64.46-2.36.52-.78,1.35-1.3,2.28-1.44ZM107.5,41.67c.81-1.8,6.43-2.54,8.54-2.82,1.62-.21,3.29-.28,4.97-.28,1.32,0,2.65.04,3.96.08,1.13.03,2.3.07,3.44.08,5.26.04,7.98.7,9.09,2.19.85,1.13.86,2.98.05,5.8-.3,1.04-1.06,1.86-2.07,2.22-.98.36-2.05.23-2.91-.36-8.29-5.6-12.44-5.6-20.2.03-.9.65-2.02.78-3.06.35-1.09-.46-1.85-1.43-2.03-2.61-.34-2.2-.27-3.6.21-4.68ZM128.21,63.91c-2.71,3.18-4.34,4.42-5.8,4.42h-.01c-1.45,0-3.08-1.22-5.8-4.36-.95-1.09-1.06-2.75-.26-3.94,2.15-3.23,3.83-4.71,5.46-4.81.06,0,.12,0,.18,0,1.66,0,3.6,1.4,6.24,4.49,1.02,1.2,1.02,3,0,4.21ZM116.21,86.01c-5.6-.06-8.77-.91-9.98-2.67-1-1.45-.87-3.74.41-7.19.37-1.01,1.18-1.75,2.21-2.04.29-.08.59-.12.89-.12.73,0,1.44.25,2.04.72,7.22,5.75,14.25,5.76,20.9.03.85-.73,1.95-1,3.01-.73,1.04.26,1.86.99,2.25,2.01,1.37,3.55,1.54,5.88.56,7.33-1.22,1.79-4.5,2.61-10.62,2.66-3.18.02-7.39.04-11.67,0Z"/>
  <path class="cls-1" d="M47,85.83c1.59.21,3.2.54,4.91.88l.81.16c.64.13,1.07.71,1.01,1.35l-.47,4.49c-.07.63-.61,1.12-1.24,1.12h-.01c-1.34-.01-2.65-.03-3.95-.05-4.84-.08-9.42-.15-14,.29-1.52.15-2.81,1.37-3.9,2.5-.75.78-1.13,1.84-1.04,2.92.08,1.08.62,2.08,1.49,2.73,1.16.89,2.44,1.72,3.85,1.83,4.75.35,9.45.29,14.43.23,1.21-.02,2.42-.03,3.65-.04h0c.35,0,.67.14.91.4.24.26.36.59.34.94l-.38,5.73c-.04.66-.57,1.17-1.26,1.17-1.35-.02-2.69-.05-4.02-.08-4.75-.11-9.25-.22-13.73.34-1.69.21-3.2,1.17-4.33,1.98-1.21.87-1.89,2.29-1.81,3.79.07,1.5.88,2.83,2.17,3.57,1.15.66,2.67,1.43,4.31,1.47,8.26.2,16.6.3,25.16.3,8.11,0,16.42-.09,25.03-.27,1.12-.02,2.31-.37,3.74-1.1,1.37-.69,2.29-2.03,2.47-3.57.18-1.54-.42-3.04-1.6-4.03-1.06-.89-2.49-1.93-4.13-2.13-4.87-.58-9.75-.47-14.9-.36-1.39.03-2.8.06-4.22.08-.33-.02-.65-.12-.88-.36-.24-.24-.37-.55-.37-.89v-5.72c0-.33.13-.64.37-.88s.55-.37.89-.37h.01c1.4.01,2.78.03,4.13.05,4.86.07,9.46.14,14-.25,1.07-.09,2.14-.54,3.47-1.44,1.13-.76,1.79-1.97,1.82-3.33.03-1.35-.6-2.63-1.69-3.44-.95-.7-2.22-1.55-3.68-1.82-2.27-.42-4.61-.39-6.88-.36-2.15.03-4.37.06-6.44-.31-1.85-.34-2.76-1.77-2.99-2.98-.23-1.21.09-2.86,1.69-3.86.22-.14.45-.27.68-.4.59-.33,1.44-.36,2.35-.4.48-.02.98-.03,1.46-.1,10.56-1.41,16.06-6.91,16.81-16.82.65-8.6.61-17.36-.12-26.01-.76-9.05-5.82-13.81-15.02-14.13-11.1-.39-22.1-.39-32.7,0-9.06.34-13.92,5.02-14.84,14.32-.72,7.24-.89,14.88-.49,22.69.65,12.8,6.02,18.45,19.16,20.16ZM64.89,40.87c0-.59.41-1.1.98-1.22,3.01-.64,5.4-.97,7.3-.97,2.21,0,3.75.43,4.83,1.31,1.71,1.38,2.46,4.09,2.44,8.77,0,.7-.56,1.28-1.25,1.28h-13.06c-.69,0-1.24-.56-1.24-1.24v-7.93ZM64.84,63.75c0-.69.56-1.24,1.24-1.24h12.62c.6,0,1.13.43,1.22,1,.69,4.23.27,7.03-1.31,8.82-1.96,2.21-5.97,3.1-12.61,2.81h0c-.64-.03-1.17-.59-1.17-1.24v-10.14ZM53.18,73.88c0,.66-.5,1.2-1.15,1.24-5.51.32-8.67-.29-10.55-2.04-1.78-1.66-2.61-4.62-2.66-9.57h0c0-.36.13-.69.37-.94.23-.23.54-.36.87-.36h11.87c.69,0,1.24.56,1.24,1.24v10.43ZM40.13,40.5c1.19-1.21,3.44-1.64,6.77-1.64,1.56,0,3.36.09,5.4.24.65.05,1.16.59,1.16,1.24v8.5c0,.69-.56,1.24-1.24,1.24h-11.99c-.65,0-1.18-.5-1.24-1.16-.44-4.78-.12-7.14,1.15-8.43Z"/>
  <path class="cls-1" d="M221.46,173.87c2.92.11,5.66.16,8.3.16,1.53,0,3.03-.02,4.5-.05,11.86-.29,21.46-8.58,21.85-18.88.2-5.33.29-75.3-.17-81.19-.03-.36-.05-.96-.08-1.72-.42-10.68-1.39-16.94-5.07-17.32-1.32-.14-2.52.22-3.46,1.05-2.51,2.2-2.65,7.19-2.77,11.59-.05,1.67-.11,3.94-.37,4.55,0,0,0,0,0,0-.22.21-.62.35-1.03.35h-25.97c-.4,0-.79-.14-1.05-.36-.48-.83-1.17-4.61-1.59-6.89-.84-4.6-1.17-6.15-1.95-6.93-1.06-1.07-2.64-1.58-4.21-1.37-1.53.2-2.82,1.04-3.53,2.28-.54.94-1,3.62-1.68,14.09-.03.47-.05.81-.06.98-.48,6.35-.32,77.38.03,83.87.5,9.35,7.52,15.41,18.32,15.8ZM213.47,83.86c.25-.31.68-.5,1.17-.5h28.34c.77,0,1.31.46,1.33.89.03.59.11,1.77.22,3.43.52,7.58,1.75,25.31,1.62,41.71-.21,26.97-3.94,31.71-5.53,32.5-6.38,3.14-16.35,3.89-22.71,1.7-.31-.11-3.08-1.62-4.09-21.45-.62-12.2-.42-26.85-.26-38.62.16-11.26.21-17.23-.24-19.09-.02-.07-.07-.29.14-.56Z"/>
  <path class="cls-1" d="M194.66,28.39c-2.21-1.75-5.48-1.43-7.28.7-.85,1.01-1.74,2.24-1.85,3.75-.45,6.25-.52,60.65-.09,66.91.35,5.05.04,5.69-5.5,11.4l-.9.93c-2.36,2.43-4.8,4.95-7.79,7.79-1.11,1.06-2.2,2.03-3.25,2.98-5.4,4.86-10.07,9.05-9.89,17.43.1,4.66.08,6.41.06,9.06-.01,1.45-.03,3.15-.03,5.71l.04,1.78c0,1.88-.01,4.78-.02,8.45-.08,28.6-.27,95.57.26,102.77.14,1.9,1.17,3.55,2.06,4.78.98,1.36,2.55,2.15,4.25,2.15.1,0,.21,0,.31,0,1.8-.1,3.38-1.08,4.24-2.61.69-1.23,1.48-2.88,1.53-4.71.29-12.08.16-73.37.09-106.3-.02-9.71-.04-17.2-.04-20.67,0-4.4,2.65-6.84,6.32-10.22.61-.56,1.23-1.13,1.87-1.74,3.15-2.99,6.4-6.99,10.32-11.89.69-.87,1.53-1.75,2.41-2.68,2.41-2.54,4.9-5.17,5.37-8.4,1.25-8.56.82-65.23.44-73.16-.09-1.82-1.56-3.13-2.94-4.22Z"/>
  <path class="cls-1" d="M195.28,130.55c-1.08-1.04-2.59-1.59-4.14-1.51-1.52.07-2.93.75-3.88,1.86-.77.89-1.66,2.11-1.73,3.61-.3,6.4-.26,12.9-.21,19.18.02,2.24.03,4.48.03,6.72,0,1.42,0,5.08-.02,10.26-.05,27.34-.16,91.37.19,98.59.05,1.1.43,2.21,1.2,3.49.85,1.42,2.4,2.37,4.14,2.53.17.02.35.02.52.02,1.6,0,3.13-.67,4.15-1.84.74-.85,1.72-2.15,1.76-3.74.39-17.33.4-117.71.1-135.38-.03-1.59-1.14-2.86-2.12-3.78Z"/>
  <path class="cls-1" d="M160.68,110.68c1.12.97,2.58,1.51,4.08,1.51.17,0,.34,0,.5-.02,1.66-.13,3.15-.89,4.18-2.14.73-.88,1.13-1.73,1.23-2.6.38-3.22.31-6.47.24-9.61-.01-.59-.03-1.18-.04-1.78h.05v-1.91c0-.71,0-2.62.02-5.36.1-23.45.17-50.79-.2-54.09-.24-2.16-2.81-5.66-5.4-5.73-4.77-.14-6.57,2.56-6.64,4.91-.28,8.98-.21,64.32.3,73.93.07,1.34.99,2.29,1.67,2.89Z"/>
  <g>
    <path class="cls-1" d="M148.49,273.22c-.06-.68-.13-1.38-.12-1.99h0c.17-24.62.17-44.45.02-62.39-.13-15.36-5.53-20.98-21.4-22.26-1.26-.11-2.56-.01-3.93.09h-.09c-3.81.28-7.74.56-11.56-3.1-.07-.06-.09-.16-.06-.25.03-.09.11-.15.2-.16,2.23-.19,4.39-.36,6.5-.53l1.8-.14c5.68-.45,11.05-.88,16.38-1.47,8.27-.9,12.13-4.51,12.15-11.36.01-7.24-4.52-9.71-11.32-11.18-7.25-1.57-14.65-1.46-21.8-1.36h-.11c-3.24.05-6.6.09-9.89-.02-2.8-.1-5.43-.07-6.96,1.42-.91.89-1.34,2.21-1.33,4.04.01,1.72.41,2.97,1.19,3.73,1.25,1.2,3.35,1.13,5.37,1.05.7-.02,1.43-.04,2.06-.02,3.28.14,6.68.11,9.67.08h.18c7.79-.06,15.85-.12,23.68,2.26.1.03.17.12.17.22s-.07.19-.17.22c-7.76,2.37-15.78,2.26-23.55,2.17-4.59-.07-8.72-.1-12.79.23-4.21.34-6.78-.23-8.34-1.84-1.5-1.54-2.01-4.02-1.6-7.78.04-.39.11-.82.19-1.32.3-1.88.63-4.01-.47-5.32-.68-.81-1.9-1.24-3.64-1.26-1.67.03-2.66.31-3.31.94-.96.95-.96,2.51-.97,4.16,0,.9,0,1.83-.18,2.69-.19.93-.05,2.11.08,3.26.22,1.91.44,3.71-.57,4.87-.59.69-1.53,1.05-2.87,1.1l-4.77.19h-.06c-12.17.49-24.76,1-36.98-2.14-.1-.03-.17-.12-.18-.22,0-.1.06-.2.16-.23,8.13-2.75,16.4-2.62,24.41-2.49h.57c3.12.05,6.34.09,9.49-.06l.78-.03c2.88-.1,5.36-.18,5.57-3.94.11-1.98-.33-3.5-1.3-4.51-.99-1.02-2.54-1.52-4.44-1.45-3.12.07-6.25.04-9.44,0-7.99-.09-16.25-.19-24.35,1.56-7.4,1.61-10.65,4.74-10.88,10.49-.26,6.63,3.51,10.75,10.64,11.6,5.83.69,11.66,1.17,17.84,1.69h.17c2.78.24,5.62.48,8.54.74.09,0,.16.06.19.15.03.08.02.18-.04.24-.52.58-.9,1.05-1.24,1.48-.58.73-.79.96-1.12.99-3.17.24-6.28.34-8.94.42-21.13.59-26.02,5.62-26.16,26.92-.12,17.59-.1,36.35.03,57.36,0,.56-.03,1.17-.07,1.85-.12,2.13-.24,4.33,1,5.58.8.81,2.1,1.16,3.84,1.04,1.5-.07,2.55-.47,3.21-1.21,1.1-1.23.97-3.25.85-5.21-.04-.7-.08-1.27-.08-1.82.04-8.59.04-17.32.03-25.77v-2.25c-.01-9.95-.02-20.23.05-30.35.08-12.26,3.58-15.82,15.59-15.85,10.39-.03,21.33-.04,33.44-.04s23.64.01,35.47.03c13.78.02,16.96,3.3,17,17.56.02,6.37.02,12.84,0,19.11v1.38c-.01,11.76-.03,23.91.12,35.86,0,.64-.06,1.36-.13,2.14-.19,2.03-.39,4.12.77,5.38.71.77,1.86,1.12,3.73,1.15,1.58-.02,2.67-.39,3.32-1.12,1.05-1.17.88-3.11.71-4.98ZM102.03,184.48c0,.11-.08.2-.19.23-3.52.79-8.22,1.7-13.35,1.7-4.21,0-8.16-.64-11.75-1.89-.1-.03-.16-.13-.16-.23,0-.1.07-.19.17-.22,3.84-1.06,7.81-1.59,11.89-1.59,4.3,0,8.71.59,13.21,1.77.1.03.18.12.17.23Z"/>
    <path class="cls-1" d="M110.99,241.65c-3.91-.25-7.86-.18-11.67-.11h-.09c-1.73.03-3.52.06-5.28.06-.13,0-.23-.1-.24-.23l-.08-3.04c0-.13.1-.23.22-.24l17.02-.78c13.37-.63,19.27-5.68,19.72-16.9.55-13.81-4.68-19.75-18.06-20.52-15.44-.89-31.2-.86-46.84.06-13.09.78-18.2,6.53-17.61,19.87.51,11.69,5.88,16.63,19.16,17.6,1.48.11,2.96.05,4.53,0h.25c3.82-.16,7.44-.31,13.4.92-.02.37-.09.92-.12,1.13-.03.2-.05.36-.06.45-.02.23.03.5.08.81.02.13.05.34.07.5-3.25,1.18-6.58.87-9.53.59-.92-.09-1.79-.17-2.62-.2h-.14c-1.24-.06-2.51-.11-3.76-.07-8.74.28-14.31,2.13-17.52,5.81-3.26,3.74-4.35,9.7-3.41,18.75.88,8.44,5.29,12.2,14.31,12.2h.13c4.36-.02,7.51-1.08,9.61-3.26,2.19-2.26,3.19-5.65,3.06-10.37,0-.33,0-.66-.01-.99v-.25c0-3.08-.01-6-3.78-6.52-1.75-.24-3,.01-3.82.76-1.37,1.25-1.37,3.75-1.25,6.2.12,2.47-.2,5.06-3.41,5.59-.43.07-2.64.38-3.92-.54-1.5-1.08-1.76-5.56-1.36-9.27.41-3.76,1.4-6.33,2.64-6.87,6.06-2.63,13.41-2.94,21.67-.9,3.02.75,2.9,3.63,2.4,7.63-.19,1.48-.38,3.01-.24,4.26.27,2.39.22,4.84.18,7.2v.21c-.02,1.2-.04,2.44-.02,3.66.03,1.82.47,4.26,3.79,4.46.15,0,.29.01.44.01,1.22,0,2.17-.31,2.83-.92.82-.76,1.24-2.04,1.26-3.79.03-2.48.03-5.01.03-7.45,0-3.58,0-6.57.07-9.65,0-.36,0-.75-.02-1.14v-.13c-.07-1.5-.14-3.05.8-4.04.57-.6,1.48-.91,2.69-.92h1.24c5.83-.06,11.85-.11,17.7.59,5.8.69,5.58,4.93,5.38,8.68v.12c-.05.84-.09,1.7-.06,2.53.06,1.68.15,3.99-1.11,5.3-.76.79-1.91,1.17-3.51,1.17-1.7,0-2.9-.37-3.65-1.14-1.08-1.09-1.05-2.78-1.03-4.43.01-1,.03-1.94-.2-2.73-.66-2.35-1.28-4.58-3.96-4.6h-.07c-2.32,0-3.69.82-4.42,2.65-1.32,3.31-1.04,8,.73,11.95,1.33,2.98,3.35,5.15,5.52,5.93,5.14,1.86,10.98,1.52,15.24-.89,2.01-1.13,4.55-3.24,5.26-6.85,2.1-10.66,1.58-17.04-1.72-21.33-3.01-3.9-8.52-6.06-16.85-6.59ZM58.72,223.76s.1-.07.17-.07h61.06c.13,0,.24.11.24.23v3.06c.01.13-.08.23-.21.24-9.7.51-19.79.76-29.97.76s-20.65-.26-31.12-.77c-.13,0-.22-.11-.22-.24v-3.05c-.01-.06.01-.13.06-.17ZM120.08,212.58s-.11.07-.17.07h-61.05c-.13,0-.24-.1-.24-.24l-.02-2.78c0-.12.09-.23.22-.24,9.41-.67,19.12-1,29.84-1,9.48,0,19.73.26,31.24.78.13,0,.23.11.23.23l.02,3c0,.06-.02.12-.07.17Z"/>
  </g>
  <path class="cls-1" d="M298.12,240.44c2.41-23.43.51-95.35.1-118.56-.19-11.03-3.46-23.15-1.28-32.6,5.09-22.02,1.84-43.68,2.36-65.37.54-22.77-2.52-24.33-24.41-23.48-17.27.67-34.47,1.69-51.85.34-8.18-.64-16.48-1.06-24.74-.52h-101.4v.08c-25.33.45-50.64,1.88-76.01.26C3.31-.53-4.32,11.77,4.34,27.45c2.41,4.37-1.13,23.66-1.06,29.9.05,3.78.11,32.72.1,34.33-.11,15.61,1.28,80.3-.39,95.72-1.02,9.37-3.68,18.81-.79,27.75,2.25,6.96,4.88,27.73,2.35,34.51-3.5,9.35-6.22,19.5-3.32,28.99,2.88,9.43,4.01,21.24,20.85,18.79,10.14-1.48,21.46-.9,32.25-.64,59.21,1.39,167.87,1.69,227.08.58,6.75-.13,18.81-6.07,18.54-18.91-.27-12.75-3.06-26.02-1.83-38.02ZM273.12,281.04c-15.37-1.09-47.79,3.23-57.28,2.07-13.13-1.6-75.62-2.57-88.97-.59-31.74,4.71-63.66,2.79-95.54,1.33-6.82-.31-9.98-2.52-11.25-10.24-2.33-14.13-3.79-28.36-3.39-42.48.93-32.57-.25-114.06.44-146.61.1-4.68-1.74-32.17-.16-41.86,3.75-22.97,3.54-23.47,25.34-29.16,18.61-2.23,37.35,0,56.02-1.26h88.06c2.69.52,5.95.05,8.53.05,11.09,0,22.17.05,33.28.17,6.31-1.27,12.75-1.48,19.16-1.27,4.44.15,8.89.35,13.32.03.33-.07.66-.13.99-.2,7.98-1.82,16.01.67,21.04,7.17.3.39.59.79.87,1.2.05-.08.09-.15.14-.23,0,.15,0,.29,0,.44,2.08,3.18,3.29,6.84,3.29,10.71,0,3.62-1.27,6.87-2.73,10.1-.06.12-.12.24-.17.37,1.27,59.06,3.88,156.17-.87,222.27-1.37-.86-3.17-1.57-5.57-1.96-7.34-1.2-18.69-1.56-26.97-1.82-1.17-.04-2.28-.07-3.31-.11-4.86-.17-9.79-.15-14.56-.14-4.33.02-8.81.03-13.2-.09-3.03-.08-4.95-4.02-5.51-6.7-.14-1.96-.22-26.46-.18-27.71.2-6.19,3.44-9.33,9.63-9.33,4.42,0,8.11.01,11.71.02,4.67.01,9.09.03,14.74.02,17.46-.04,26.77-11.65,26.9-33.6.04-6.36.03-28.07.03-53.21,0-33.67-.02-71.83.08-80.49.02-1.93.95-4.08,1.85-6.18.2-.46.47-.96.83-1.53.85-1.33,1.09-2.97.67-4.48-.43-1.56-1.53-2.88-3.02-3.61-1.33-.66-2.47-.98-3.57-.99-26.27-.25-47.81-.23-67.79.07-.61,0-1.24.14-1.86.38-2.61,1.01-4.09,3.51-3.69,6.22.4,2.69,2.53,4.64,5.3,4.85.12,0,.25.02.37.02,11.18.18,22.54.17,33.52.17,5.88,0,11.95,0,17.92.02,1.55,0,3.15.19,4.65.37,1.06.13,1.86.96,1.86,1.92v3.98c.02,77.64.02,121.81-.01,131.29-.05,16.26-4.49,22.64-15.84,22.76-2.83.03-5.36.06-7.75.09-6.48.08-12.08.14-19.85.14-12.07,0-18.71,10.16-19.03,20.2,0,.22-.02,27.99.17,29.55,1.26,10.37,8.46,17.15,18.8,17.68,5.48.28,11.35.14,17.56,0,13.12-.32,26.66-.64,38.19,2.98.99.52,2.14,1.46,2.14,3.03,0,1.32-.7,2.45-1.54,3.35-1.16.59-2.44.91-3.82.81Z"/>
</svg>