<?xml version="1.0" encoding="UTF-8"?>
<svg id="Layer_2" xmlns="http://www.w3.org/2000/svg" viewBox="0 0 52.18 75.45">
  <g id="Layer_1-2" data-name="Layer_1">
    <g>
      <path fill="white" d="M41.09,53.46c-9.65,0-19,.02-28.34-.05-.49,0-1.32-.64-1.41-1.09-.75-3.65-2.68-6.56-5.01-9.39C-.01,35.25-1.64,26.47,1.68,17.17,4.97,8,11.73,2.3,21.35.47c10.62-2.02,20.9,2.53,26.63,11.43,5.75,8.94,5.61,20.32-.6,29.17-2.68,3.82-5.47,7.51-6.3,12.39Z"/>
      <path fill="white" d="M14.31,68.03h23.43c-.68,3.54-4.3,6.69-8.25,7.16-8.33,1-12.34-.83-15.19-7.16Z"/>
      <path fill="white" d="M11.79,62.3h28.62c.06,2.71-.07,2.85-2.61,2.85-7.77,0-15.55-.07-23.32.05-2.07.03-2.86-.67-2.69-2.9Z"/>
      <path fill="white" d="M11.72,59.15v-2.55h28.85v2.55H11.72Z"/>
    </g>
  </g>
</svg>