<?xml version="1.0" encoding="UTF-8"?>
<svg id="Layer_2" xmlns="http://www.w3.org/2000/svg" viewBox="0 0 88 59.58">
  <g id="Layer_1-2" data-name="Layer_1">
    <g>
      <path fill="white" d="M0,32.69c.03-.16.05-.31.08-.47.41-2.57,1.46-4.81,3.48-6.52.02-.02.04-.04.07-.07-.17-.17-.34-.34-.51-.51-.73-.73-1.08-1.65-1.32-2.61-.34-1.35-.25-2.66.46-3.89.49-.86,1.21-1.49,2.01-2.06.62-.44,1.31-.6,2.03-.68.97-.11,1.92-.07,2.84.28.73.28,1.31.73,1.76,1.37.03.04.06.08.1.14,2-.86,3.99-.71,5.97.09.33-.54.66-1.08.99-1.63-.14-.16-.28-.32-.41-.48-.65-.81-1.08-1.72-1.22-2.76-.02-.16-.09-.22-.25-.26-1.01-.21-1.83-.74-2.41-1.6-.75-1.11-1.06-2.36-.97-3.69.06-.88.48-1.65.96-2.38.04-.05.08-.11.11-.16,0-.01,0-.03,0-.04-1.2-.28-4.18,1.06-5.37,2.42-.92,1.05-1.84,2.96-1.54,5.68-.06.01-.12.03-.22.06-.02-.33-.06-.63-.06-.93-.02-1.9.46-3.64,1.77-5.08,1-1.1,2.29-1.74,3.71-2.12.57-.15,1.17-.19,1.75-.29.11-.02.24-.08.3-.16,1.46-1.9,3.42-2.92,5.76-3.26,2.33-.33,4.62-.18,6.82.71.95.38,1.81.92,2.67,1.48.13.09.22.1.37.02,1.88-1.07,3.87-1.85,6-2.23.86-.15,1.73-.28,2.6-.19,1.21.12,2.45.11,3.62.56,1.97.76,3.26,2.1,3.62,4.22.39,2.3-.78,4.85-2.96,5.73-1.35.54-2.74.64-4.13.2-1.12-.35-2.06-1.01-2.69-2.04-.63-1.03-.78-2.15-.49-3.3.09-.34.37-.64.61-.92.83-.96,1.86-1.52,3.15-1.5,1.17.02,2.2.42,2.96,1.35.34.41.5.89.49,1.42,0,.06-.03.13-.06.19-.02.04-.07.06-.11.09-.02-.05-.06-.1-.06-.15.04-.97-.44-1.63-1.23-2.1-1.73-1.02-3.61-.68-5,.85-.49.54-.69,1.15-.66,1.86.05,1.57.8,2.7,2.11,3.54,1.77,1.14,4.57.81,5.92-.21,1.06-.8,1.67-1.89,1.91-3.16.3-1.62-.05-3.1-1.17-4.36-.91-1.02-2.08-1.57-3.41-1.81-1.59-.29-3.17-.15-4.73.19-.73.16-1.4.48-2.06.82-1.13.57-2.16,1.29-3.16,2.1.18.22.37.42.54.64,1.28,1.6,1.97,3.42,1.97,5.47,0,1.86-.44,3.62-1.53,5.16-.94,1.34-2.22,2.23-3.76,2.73-2.49.81-4.96.74-7.4-.19-.01,0-.03,0-.07-.02-.28.42-.57.85-.83,1.25.37.51.75.98,1.07,1.5.87,1.39,1.16,2.91.89,4.53-.03.15.01.23.15.31.56.32,1.11.66,1.65,1,.14.09.23.09.36-.01,1.34-1.01,2.82-1.73,4.46-2.09,1.27-.28,2.56-.35,3.84-.07.76.17,1.53.35,2.27.58.66.21,1.25.58,1.71,1.12.05.06.16.1.24.09.8-.07,1.54.08,2.24.47.64.36,1.26.75,1.78,1.27.02.02.05.03.08.06.72-.48,1.5-.85,2.31-1.15,1.63-.61,3.31-.76,5-.33.29.07.58.22.82.4.67.5.87,1.28.58,2.18-.39,1.23-1.27,1.9-2.56,1.94-1,.03-1.94-.22-2.87-.55-.87-.3-1.62-.81-2.41-1.38-.85.96-1.69,1.91-2.53,2.85.26.33.49.63.72.92.03.03.06.07.1.08.48.2.96.36,1.48.36.23,0,.44-.06.59-.27.08.05.16.09.25.15-.32.5-.6.99-.94,1.45-.4.54-.65,1.09-.47,1.78.06.24,0,.51,0,.81.11-.13.22-.24.31-.37.82-1.21,1.63-2.42,2.45-3.63.03-.05.07-.09.1-.13.81.35,1.14.43,2.03.17-.08.13-.14.23-.2.33-.85,1.33-1.71,2.65-2.55,3.98-.15.24-.21.55-.28.84-.02.08.04.24.09.26.1.03.24,0,.33-.05.11-.07.2-.2.28-.31.94-1.31,1.87-2.63,2.82-3.93.25-.35.56-.66.87-.95.5-.45,1.08-.51,1.7-.25.3.13.46.38.54.68.07.26.11.52.17.82.24-.24.45-.49.69-.69.23-.19.47-.37.73-.52.66-.39,1.2-.33,1.82.19-.05.01-.1.02-.16.04.25.55.26,1.09-.06,1.6-.17.27-.38.52-.58.77-.39.5-.79,1-1.17,1.51-.1.14-.18.3-.24.46-.03.07.01.16.02.24.09-.01.2,0,.26-.05.31-.28.65-.54.91-.86.76-.96,1.5-1.95,2.23-2.94.12-.16.2-.36.29-.54.17-.38.52-.55.92-.42.43.14.85.27,1.31.12.06-.02.16.09.26.15-.37.53-.73,1.02-1.08,1.53-.61.87-1.23,1.73-1.82,2.62-.15.23-.22.52-.29.79-.05.17.07.25.23.21.14-.04.31-.08.41-.17,1.27-1.19,2.54-2.39,3.8-3.6.15-.15.26-.35.37-.54.03-.06,0-.15,0-.23,0-.31-.02-.61.02-.91.05-.35.32-.51.64-.58.19-.04.36.03.49.19.13.16.2.33.09.53-.21.35-.41.71-.65,1.04-.11.16-.13.28-.08.46.16.49.3.99.46,1.54.86-.84,1.51-1.79,2.23-2.76h-.88v-.3c.3,0,.59-.01.89,0,.15,0,.22-.04.3-.16.46-.7.9-1.41,1.21-2.19.08-.21.2-.21.39-.09.37.23.78.29,1.2.21.19-.03.38-.1.61-.16-.45.82-.87,1.6-1.32,2.42h1.08v.31c-.31,0-.62.02-.93,0-.25-.02-.37.07-.49.28-.58.99-1.2,1.96-1.78,2.95-.23.4-.41.82-.61,1.24-.03.06-.06.12-.06.19,0,.15.02.29.03.44.17-.02.4.01.51-.09.39-.33.73-.71,1.09-1.08.04-.04.05-.1.06-.16.28-1.35,1-2.45,2.04-3.33.47-.4,1.09-.55,1.69-.7.06-.01.12-.04.17-.03.41.05.57-.18.7-.53.34-.91.83-1.74,1.41-2.53.02-.03.04-.07.07-.12-.47-.09-.93-.17-1.39-.27-1.61-.36-3.14-.91-4.45-1.94-1.44-1.13-2.22-2.62-2.44-4.44-.26-2.09,1-4.73,3.41-5.88,1.41-.67,2.92-.98,4.45-.82,1.92.19,3.69.88,5.03,2.37.73.81,1.04,1.79,1.01,2.87-.05,1.44-.51,2.69-1.62,3.66-1.04.91-2.27,1.25-3.63,1.13-1.56-.14-2.79-.91-3.72-2.13-.75-.97-.68-2.05-.14-3.11.13-.24.28-.47.43-.72.08.05.13.09.19.13-.11.17-.22.34-.32.51-.8,1.37-.63,2.61.55,3.68,1.26,1.15,2.73,1.68,4.45,1.35,1.52-.29,3.19-1.62,3.5-3.73.3-2.02-.42-3.53-2.23-4.62-1.06-.64-2.22-1.05-3.45-1.18-.99-.11-1.99.04-2.96.29-1.46.37-2.7,1.09-3.61,2.31-1.75,2.35-1.32,5.2.2,7.11.81,1.02,1.89,1.7,3.08,2.2,1.18.5,2.42.79,3.68.98.2.03.25-.11.34-.21.99-1.24,2.14-2.31,3.5-3.14,1.58-.97,3.29-1.52,5.14-1.65.89-.06,1.75.06,2.62.21.07.01.14.03.27.05.16-.5.33-.99.46-1.5.21-.84.27-1.69.25-2.55-.02-.65,0-1.29-.18-1.92-.46-1.72-1.49-2.99-3.08-3.78-1.47-.73-3.04-1.07-4.67-1.25-2.1-.23-4.2-.02-6.3.04-.71.02-1.42.06-2.13.08-.19,0-.28.06-.35.24-.56,1.46-1.35,2.76-2.5,3.83-1.2,1.12-2.58,1.89-4.22,2.16-.23.04-.35.13-.45.33-.43.85-.96,1.61-1.75,2.17-.4.28-.84.51-1.33.57-.82.1-1.5-.27-1.88-1.01-.12-.23-.2-.47-.3-.7-.41.34-.83.67-1.23,1.02-.39.33-.8.62-1.32.7-.37.06-.7-.06-.9-.38-.16-.26-.24-.56-.35-.84-.03-.08-.03-.17-.06-.29-.27.21-.52.41-.78.59-.3.21-.6.44-.93.61-.21.11-.47.16-.72.17-.57.02-.83-.18-1.01-.72-.02-.06-.01-.13,0-.19.3-.82.68-1.58,1.2-2.29.53-.73,1.01-1.51,1.5-2.27,0,0,0-.03,0-.05-.2-.03-.38,0-.52.16-.47.56-.96,1.11-1.39,1.7-.89,1.22-1.75,2.46-2.61,3.7-.16.23-.3.19-.45-.04-.1-.15-.27-.3-.44-.36-.29-.1-.61-.13-.94-.19,1.01-1.61,2.02-3.23,3.03-4.85-.01-.02-.03-.04-.04-.06-.19.11-.42.19-.56.35-.65.76-1.29,1.52-1.89,2.32-.67.9-1.29,1.85-1.94,2.77-.09.13-.21.25-.36.43.09-.66-.35-.83-.79-.96-.24-.07-.49-.09-.76-.14.22-.31.44-.62.66-.93.91-1.27,1.83-2.55,2.74-3.82.14-.2.24-.41.27-.65-.02-.02-.03-.04-.05-.07-.24.13-.54.21-.73.4-.94.95-1.86,1.92-2.75,2.9-.33.37-.57.82-.88,1.2-.44.54-.94,1.01-1.6,1.26-.25.1-.54.17-.81.16-.67-.03-1.06-.47-1.15-1.24-.02-.17-.03-.33-.04-.5-.38.27-.74.54-1.11.79-.29.19-.6.37-.91.54-.58.31-1.01.2-1.43-.32-.19-.24-.18-.51-.11-.77.16-.55.35-1.09.76-1.54.75-.83,1.45-1.71,2.18-2.56.12-.14.11-.26,0-.39-.17-.22-.41-.32-.67-.39-2.17,3.08-5.09,5.09-8.71,6.17-.02-.09-.04-.16-.05-.2.65-.24,1.3-.44,1.91-.71,2.65-1.15,4.86-2.87,6.54-5.24.09-.12.09-.22.04-.36-.1-.27-.19-.54-.24-.82-.08-.43.33-.85.77-.83.2.01.4.23.39.49,0,.33-.06.66-.11,1.08.28.17.63.42,1.02.6.47.22.87.85.83,1.41,0,.04,0,.08,0,.08.23-.21.47-.46.73-.66.4-.31.8-.62,1.23-.89.66-.41,1.4-.47,2.14-.36.79.12,1.11.83.71,1.52-.64,1.11-1.6,1.74-2.91,1.73-.23,0-.36.07-.46.27-.26.52-.51,1.04-.6,1.62-.03.22-.04.45.18.59.18.12.53.08.69-.1.35-.37.73-.73,1.02-1.15.44-.64.94-1.22,1.47-1.78.6-.63,1.21-1.23,1.81-1.86.37-.39.83-.61,1.35-.71.49-.1.9.13,1.07.6.11.31.15.64.22.98.12-.12.23-.27.37-.39.29-.27.56-.57.88-.78.47-.3.99-.22,1.39.15.1.09.18.23.21.37.07.25.1.52.16.81.06-.07.11-.12.17-.17.36-.34.7-.69,1.07-1,.3-.25.66-.38,1.06-.33.49.07.81.39.88.87.1.74-.07,1.39-.6,1.94-.16.17-.27.38-.4.58-.34.52-.68,1.04-1.02,1.56-.04.06-.06.12-.1.18.02.02.04.04.06.07.11-.08.24-.13.32-.23,1.23-1.51,2.44-3.04,3.39-4.72.35.14.69.31,1.04.42.38.12.73-.01,1.04-.28.07.06.14.12.22.19-.23.3-.46.6-.67.9-.7,1-1.42,1.99-2.09,3.01-.19.29-.28.65-.38,1-.06.24.03.29.26.2.61-.21,1.01-.7,1.47-1.11.05-.04.05-.15.06-.22.31-2.01,1.37-3.46,3.25-4.27.3-.13.63-.19.96-.23,1.14-.12,2.17,1.1,1.86,2.2-.09.3-.22.59-.34.88-.04.11-.09.21-.14.32,2.2.19,6.22-3.4,6.68-5.92-.56,0-1.12-.01-1.68,0-1,.03-1.99.09-2.99.12-1.04.03-2.08.08-3.12.03-1.01-.05-2.02-.01-3.02-.26-2.12-.53-3.76-1.72-5.02-3.5-.84-1.18-1.19-2.47-.97-3.88.19-1.26.62-2.45,1.32-3.53,1.18-1.84,2.89-2.93,4.97-3.5.57-.15,1.16-.22,1.75-.33.04,0,.08-.02.12-.04.23,0,.47,0,.7,0,.07.02.14.04.21.04,1.59.2,3.13.58,4.55,1.32,2.04,1.07,3.45,2.68,4.12,4.91.38,1.27.31,2.57.25,3.86-.02.47-.07.95-.11,1.44.07,0,.11,0,.16,0,.64,0,1.28-.03,1.91-.03,1.77,0,3.55,0,5.31.21.91.1,1.79.25,2.64.67,1.65.81,2.94,2.01,4.01,3.47.65.89,1.13,1.87,1.53,2.89.08.2.16.41.22.62.23.74.24,1.5.26,2.26.02.98-.07,1.95-.34,2.89-.11.39-.25.78-.38,1.17.04.01.08.03.12.05.51.17,1.03.3,1.52.5,2.2.89,3.91,2.35,4.97,4.5.25.5.43,1.04.64,1.56v.04c-.09.03-.18.06-.26.09-.02-.02-.04-.03-.04-.04-.02-.05-.04-.11-.06-.17-.44-1.35-1.12-2.56-2.12-3.58-1.33-1.35-2.96-2.16-4.77-2.63-.13-.04-.18.02-.23.13-.79,1.54-1.98,2.67-3.52,3.44-1.73.86-3.59,1.16-5.49,1.2-.77.02-1.54-.07-2.3-.11-.13,0-.22.02-.29.13-.24.37-.51.72-.72,1.1-.33.61-.63,1.23-.95,1.88.45.11.76.31.99.71.08-.06.12-.15.18-.22.27-.34.47-.38.88-.23.32.12.66.21.99.09.21-.08.31-.01.4.15-.07.11-.13.22-.2.32-.74,1.25-1.49,2.49-2.22,3.74-.13.22-.22.46-.3.7-.03.08.01.18.02.27.09-.02.19-.03.26-.08.15-.1.28-.21.41-.33,1.19-1.05,2.16-2.29,3.08-3.57.04-.06.05-.15.05-.22,0-.3-.05-.6-.04-.9.02-.48.22-.74.62-.85.34-.1.62.12.61.48,0,.09-.02.17-.03.26-.08.46-.26.87-.61,1.17.59.81.75,1.77,1.04,2.7.06-.09.09-.14.13-.19.61-.93,1.3-1.78,2.14-2.53,1.36-1.22,2.95-1.62,4.72-1.32,3.39.57,5.56,3.47,5.71,6.59.11,2.23-.76,4.15-2.22,5.76-1.3,1.43-2.96,2.34-4.86,2.75-1.5.33-3.01.25-4.5,0-1.72-.29-3.28-.95-4.59-2.12-2.16-1.93-3.41-4.36-3.74-7.25-.02-.21-.07-.42-.1-.63-.42.48-.91.77-1.47.97-.89.32-1.61-.03-1.92-.93-.06-.18-.1-.36-.16-.57-.07.08-.13.14-.19.2-.47.46-.94.93-1.59,1.14-.57.19-1.04-.01-1.35-.53-.19-.32-.32-.65-.29-1.03-.03.04-.05.08-.06.11-.14.3-.25.63-.43.9-.74,1.06-2.6,1.12-3.11-.18-.32-.82.18-1.62,1.06-1.57.51.03.92-.05,1.14-.59.18-.44.22-.88.16-1.39-1.18,1.11-2.32,2.19-3.46,3.26-.25.24-.49.49-.77.69-.91.64-1.72.35-2.07-.71-.04-.13-.06-.27-.09-.41-.02-.11-.04-.22-.07-.36-.08.07-.13.12-.18.16-.36.33-.72.67-1.08,1-.28.27-.63.4-1,.46-.68.11-1.16-.3-1.14-.99.02-.56.24-1.05.58-1.49.7-.91,1.39-1.81,2.09-2.72.08-.1.13-.22.21-.36-.25-.02-.44,0-.59.15-.46.48-.96.94-1.35,1.47-.95,1.32-1.85,2.68-2.77,4.02-.08.11-.18.21-.31.35-.03-.37-.13-.65-.46-.77-.14-.05-.28-.1-.42-.13-.21-.04-.43-.06-.68-.1,1.07-1.75,2.17-3.44,3.19-5.19-.3-.02-.57.01-.77.22-.2.21-.38.43-.55.66-.93,1.29-1.85,2.59-2.78,3.88-.29.4-.65.71-1.17.74-.68.04-1.18-.39-1.34-1.14-.04-.2-.07-.39-.1-.59-.02,0-.04-.01-.06-.02-.08.13-.21.25-.23.4-.41,2.29-1.55,4.16-3.37,5.59-.63.49-1.35.87-2.03,1.3-.89.55-1.83.99-2.82,1.33-1.54.54-3.11.91-4.76.81-.91-.05-1.78-.26-2.65-.48-2.12-.53-3.81-1.65-5.03-3.47-.03-.04-.06-.07-.1-.12-.04.09-.07.15-.1.22-.7,1.82-.59,3.59.29,5.31,1.16,2.28,3.08,3.48,5.59,3.67,1.83.14,3.65-.14,5.42-.6,2.42-.62,4.75-1.54,6.98-2.67,1.58-.8,3.17-1.58,4.77-2.34,2.73-1.3,5.47-2.57,8.35-3.53,2.46-.82,4.95-1.33,7.55-1.1,1.21.11,2.37.4,3.42,1.03,1.09.65,2.02,1.48,2.74,2.53.45.67.93,1.32,1.29,2.04.44.85.61,1.8.69,2.75.14,1.64-.17,3.19-1.06,4.59-1.68,2.64-4.16,4.02-7.22,4.43-.41.06-.83.09-1.24.13h-1.32c-.07-.01-.14-.03-.21-.04-2.82-.3-4.86-1.65-5.95-4.33-.41-1.02-.63-2.07-.51-3.16.18-1.61.92-2.95,2.17-3.99.89-.74,1.94-1.17,3.06-1.41.95-.2,1.92-.33,2.88-.2,1.28.17,2.49.59,3.59,1.29,1.49.95,2.34,2.25,2.26,4.07-.05,1.14-.34,2.19-1.1,3.09-1.42,1.67-3.37,1.98-5.17,1.5-.88-.23-1.64-.75-2.3-1.38-.36-.35-.67-.74-.84-1.22-.43-1.18-.07-2.21.62-3.18.03-.04.17-.04.21,0,.04.03.06.16.04.21-.12.23-.28.45-.4.68-.53,1.03-.48,2.03.28,2.91.88,1.01,1.96,1.69,3.34,1.85,2.45.28,4.45-1.45,4.87-3.43.34-1.64.03-3.05-1.22-4.21-.57-.52-1.22-.9-1.93-1.2-.84-.34-1.69-.64-2.6-.69-.89-.05-1.77.06-2.64.27-1.6.39-2.95,1.17-3.88,2.57-.64.97-1.04,2.02-.96,3.2.04.54.13,1.08.27,1.6.7,2.67,2.78,4.47,5.5,4.82,1.04.14,2.06.07,3.09-.05,1.93-.22,3.65-.93,5.16-2.15,3.38-2.72,3.57-6.85,1.89-9.85-.53-.95-1.24-1.67-2.26-2.08-.93-.38-1.89-.58-2.88-.66-1.05-.09-2.09-.02-3.13.13-1.61.23-3.18.61-4.69,1.21-1.71.68-3.4,1.41-5.08,2.15-2.05.9-4.09,1.83-6.13,2.76-1.28.58-2.53,1.23-3.82,1.77-1.53.64-3.12,1.11-4.76,1.37-1.59.24-3.18.28-4.78.11-1.6-.17-3.13-.61-4.54-1.41-.65-.37-1.21-.84-1.79-1.32-2.23-1.83-3.49-5.16-2.09-8.26.03-.08.03-.2-.01-.28-.29-.55-.53-1.12-.69-1.72-.36-1.36-.46-2.73-.26-4.12.3-2.01.87-3.94,1.81-5.75.55-1.06,1.16-2.07,2.02-2.91.35-.34.71-.65,1.09-1-.6-.36-1.19-.72-1.8-1.09-.66,3.06-2.61,4.92-5.45,5.98.07.13.13.25.19.36.33.64.56,1.31.61,2.03.12,1.93-.56,3.55-2.04,4.8-.99.84-2.14,1.34-3.39,1.65-1.39.35-2.8.48-4.23.27-1.71-.24-3.25-.88-4.58-2.01-1.31-1.12-2.26-2.43-2.59-4.14C.06,34.74.04,34.51,0,34.28c0-.53,0-1.06,0-1.58ZM5.36,33.96c.02-.07.02-.12.04-.16.19-.67.48-1.29.86-1.87.64-.98,1.47-1.76,2.62-2.06.7-.18,1.44-.27,2.17-.32.87-.07,1.73.03,2.56.3.98.31,1.71.94,2.27,1.78.09.14.17.17.32.1.47-.22.96-.41,1.41-.66,1.97-1.1,3.22-2.75,3.72-4.95.03-.15.02-.24-.13-.31-.37-.19-.73-.41-1.09-.62-1.06-.61-2.12-1.18-3.32-1.47-.26-.06-.42-.02-.61.17-1.27,1.24-2.7,2.24-4.36,2.91-1.65.66-3.34.83-5.09.45-.83-.18-1.59-.53-2.34-1.02-.33.48-.68.93-.98,1.41-.21.33-.4.69-.51,1.06-.63,2.26-.72,4.53-.03,6.8.32,1.06.83,2.02,1.51,2.89.98,1.25,2.32,1.92,3.85,2.22.6.12,1.22.24,1.82.2,1.04-.07,2.05-.36,3-.81,1.45-.68,2.62-1.64,3.22-3.19.61-1.57.49-3.06-.33-4.52-.08-.15-.16-.17-.31-.12-.36.11-.72.21-1.08.29-.44.1-.89.17-1.35.26-.02-.1-.02-.16-.03-.2.85-.19,1.68-.38,2.52-.57-.02-.08-.03-.1-.04-.12-.56-.85-1.29-1.46-2.29-1.74-.99-.27-2-.29-3.01-.19-.72.07-1.42.19-2.07.54-1.09.59-1.78,1.52-2.28,2.62-.14.31-.25.64-.37.97-.09-.02-.17-.04-.26-.06ZM66.48,39.86s-.04.02-.05.04c.1.48.18.96.31,1.43.37,1.4.99,2.68,1.88,3.84.6.77,1.24,1.48,2.04,2.05,1.23.87,2.6,1.39,4.09,1.63,1.06.17,2.11.2,3.16-.07,1.45-.38,2.66-1.16,3.65-2.28,1.5-1.7,2.34-3.66,2.32-5.96-.01-1.09-.24-2.12-.65-3.12-.35-.85-.88-1.56-1.61-2.1-.79-.6-1.72-.79-2.69-.91-1.01-.13-1.84.21-2.62.78-.74.55-1.37,1.22-1.92,1.95-.43.57-.83,1.15-1.12,1.81-.29.64-.75,1.16-1.39,1.48-.83.41-1.63.04-2.12-.7-.31-.48-.11-.94.22-1.33.3-.36.68-.57,1.18-.5.27.04.53-.05.66-.3.13-.24.23-.49.29-.76.08-.38-.03-.76-.17-1.15-.06.07-.09.11-.12.15-.5.63-.98,1.28-1.5,1.89-.67.79-1.39,1.53-2.27,2.09-.5.32-1.01.43-1.54.06ZM57.79,11.98c1.57-.09,3.14-.19,4.72-.28.83-.05,1.66-.07,2.48-.1.11,0,.19-.01.21-.15.14-1.23.24-2.46.12-3.69-.23-2.49-1.45-4.41-3.53-5.77-1.32-.86-2.8-1.33-4.34-1.59-.51-.09-1.03-.17-1.55-.16-.91.03-1.8.24-2.66.54-2.32.82-4.01,2.32-4.91,4.65-.14.37-.32.77-.33,1.15-.06,1.36.45,2.51,1.51,3.38,1.09.89,2.37,1.38,3.74,1.64,1.5.28,3.01.33,4.54.37ZM24.93,38.36s-.08.03-.12.04c-.85.4-1.65.89-2.39,1.47-.33.26-.46.52-.38.96.3,1.71,1.02,3.17,2.36,4.3,1.37,1.16,3.02,1.48,4.76,1.48,1.41,0,2.74-.37,4.01-.96.71-.33,1.39-.73,2.08-1.09,2.32-1.21,3.93-3.02,4.69-5.54.05-.16.08-.32.12-.49-.09.04-.14.09-.19.14-.3.34-.65.61-1.08.77-.55.21-1.07.06-1.36-.45-.17-.31-.29-.64-.43-.95-.06.05-.16.13-.24.22-.62.66-1.34,1.09-2.28,1.11-.66,0-1.18-.27-1.28-.82-.09-.51-.11-1.03.07-1.54.11-.32.22-.63.34-.95-.18-.06-.31-.02-.38.16-.02.05-.06.1-.09.15-.53.84-1.02,1.72-1.79,2.38-.03.03-.05.08-.05.13,0,.48.04.97-.01,1.44-.18,1.43-1.1,2.12-2.53,1.94-.65-.08-1.25-.31-1.83-.58-1-.47-1.59-1.26-1.83-2.33-.07-.32-.11-.65-.16-.98ZM24.15,7.54c.81-.71,1.56-1.42,2.36-2.07.8-.65,1.65-1.23,2.48-1.84-.21-.33-.66-.76-1.06-.99-.92-.55-1.91-.94-2.95-1.18-1.67-.38-3.35-.44-5.04-.19-1.96.3-3.73,1.01-5.08,2.53-.18.2-.36.41-.57.64.09,0,.12,0,.16.01,1,.03,1.98.17,2.92.53,1,.39,1.87.96,2.46,1.87.14.21.25.23.47.17.61-.15,1.23-.29,1.86-.17.71.13,1.38.36,1.97.68ZM20.82,17.77c1.09.23,2.15.27,3.21.03,1.64-.38,2.93-1.26,4.01-2.56,1.12-1.34,1.91-2.83,2.44-4.48.58-1.81.53-3.59-.26-5.33-.06-.12-.12-.24-.19-.37-.08.07-.13.11-.19.16-1.29,1.19-2.44,2.51-3.53,3.89-.17.22-.27.4-.06.64.06.07.09.17.12.26.35.85.55,1.71.39,2.63-.26,1.51-1.59,2.61-3.4,3.06-.02-.06-.04-.12-.06-.19.08-.03.15-.05.22-.07.69-.23,1.34-.52,1.9-.99,1.04-.87,1.33-1.99,1.07-3.28-.1-.53-.29-1.04-.6-1.56-1.77,2.7-3.42,5.42-5.1,8.17ZM7.26,23.5c-.05-.32-.12-.61-.13-.9-.02-.71.24-1.35.57-1.96.57-1.03,1.25-1.97,2.34-2.52.23-.12.46-.25.75-.41-.28-.29-.52-.58-.81-.82-.73-.6-1.61-.82-2.54-.85-1.2-.03-2.36.1-3.36.89-.86.67-1.59,1.43-1.97,2.47-.47,1.31-.32,2.59.15,3.87.32.87.83,1.6,1.58,2.2,1.03-.86,2.17-1.53,3.41-1.98ZM26.16,28.71c1.03.97,2.07,1.89,3.19,2.71.06.04.19.04.27.01.54-.19,1.06-.46,1.61-.58,1.67-.38,3.34-.34,5,.15.15.04.21,0,.26-.13.22-.48.37-.96.35-1.5-.04-.85-.22-1.67-.66-2.41-.09-.15-.18-.17-.34-.12-.57.19-1.04.53-1.34,1.05-.23.39-.39.83-.59,1.27-.04,0-.12-.02-.23-.04.11-.6.34-1.13.7-1.6.37-.48.85-.8,1.45-1.03-.3-.26-.6-.51-.93-.7-.6-.35-1.27-.51-1.94-.67-.59-.14-1.16-.1-1.73.08-.33.11-.67.22-1,.33-1.75.55-2.99,1.74-4.06,3.18ZM19.78,7.18c-.29-.49-.64-.88-1.07-1.2-1.33-1-2.86-1.28-4.48-1.29-.07,0-.17.06-.21.12-.97,1.29-1.41,2.69-.96,4.31.28,1,.69,1.9,1.52,2.56.48.39,1.03.63,1.67.74-.1-1.19.28-2.23.91-3.19.64-.97,1.51-1.64,2.62-2.05ZM69.2,30.47c.07.01.11.02.14.02.72.03,1.43.1,2.15.09,1.38,0,2.73-.2,4.05-.62,1.94-.63,3.51-1.73,4.57-3.5.09-.15.17-.32.26-.49-2.15-.53-4.19-.25-6.17.57-2.01.84-3.62,2.2-4.99,3.93ZM25.95,28.99c-.05.07-.11.15-.17.23-.82,1.16-1.53,2.39-2.15,3.67-.85,1.76-1.49,3.58-1.65,5.54-.04.46,0,.93,0,1.41.05-.04.09-.06.13-.09.8-.7,1.71-1.23,2.67-1.67.13-.06.17-.13.18-.28.05-.87.14-1.74.5-2.55.54-1.21,1.43-2.12,2.5-2.86.38-.26.78-.49,1.14-.72-1.04-.89-2.09-1.79-3.14-2.69ZM41.61,29.15s.06.06.09.08c.67.49,1.37.94,2.17,1.22.8.28,1.6.51,2.46.53,1.36.03,2.21-.57,2.58-1.82.28-.96-.15-1.79-1.12-2.09-.87-.26-1.76-.31-2.65-.21-.63.07-1.16.39-1.67.74-.67.45-1.28.97-1.86,1.55ZM16.83,17.97c-1.34-.82-4.75-.86-5.71-.07.91,1.66.68,3.32-.09,5.03.85,0,1.66,0,2.47,0,.14,0,.23-.03.31-.15.7-1.07,1.43-2.13,2.12-3.21.33-.52.6-1.07.9-1.6ZM18.08,15.9c1.82-2.86,3.81-5.56,5.97-8.15-1.27-.67-2.55-.96-3.91-.43.08.42.18.83.24,1.25.09.6.08,1.2-.07,1.79-.32,1.23-1.18,1.91-2.38,2.16-.45.1-.92.12-1.41.18.15,1.23.7,2.27,1.56,3.19ZM4.55,26.06c.23.14.43.27.64.38.73.39,1.5.63,2.32.7.82.06,1.58-.17,2.29-.57,1.16-.64,2.1-1.54,2.97-2.52.23-.26.44-.52.69-.81-.12-.01-.2-.02-.28-.03-.72,0-1.44,0-2.15-.02-.14,0-.22.05-.31.16-.38.52-.88.85-1.48,1.08-.6.23-1.07.06-1.49-.36-.05-.05-.11-.1-.15-.16-.08-.13-.16-.11-.27-.05-1.08.51-1.96,1.27-2.77,2.19ZM27.66,37.49c-.07,0-.17,0-.25.02-.69.22-1.38.44-2.07.67-.05.02-.1.13-.09.19.02.26.04.51.09.76.17.9.58,1.65,1.41,2.12.64.36,1.31.62,2.04.71.71.09,1.38-.01,1.81-.67.46-.69.44-1.48.41-2.31-.52.32-1.05.39-1.62.32-.67-.07-1.19-.37-1.47-.99-.11-.25-.17-.52-.27-.82ZM10.87,17.94c-.78.43-1.59.81-2.13,1.55-.57.78-1.11,1.57-1.32,2.53-.11.46-.11.93.12,1.38,1.01-.34,2.04-.44,3.08-.48.06,0,.16-.06.19-.12.52-1.02.79-2.09.63-3.24-.08-.56-.26-1.09-.56-1.61ZM21.41,25.56c.41-2.3-.35-4.18-1.88-5.86-.85,1.33-1.77,2.54-2.86,3.69,1.78.34,3.21,1.35,4.74,2.17ZM27.64,37.17c.22-2.34,1.52-3.71,3.71-4.35-.66-.19-1.27-.5-1.83-.89-.05-.04-.19-.01-.25.03-.53.33-1.09.64-1.58,1.03-1.23.96-2.12,2.14-2.32,3.74-.05.37-.08.73-.13,1.13.83-.28,1.59-.63,2.41-.69ZM16.52,12.48c.46-.06.91-.08,1.35-.17,1.12-.24,1.91-.85,2.21-2,.17-.63.15-1.28.04-1.92-.06-.33-.15-.66-.22-.99-2.49.81-3.68,3.52-3.38,5.08ZM38.65,32.46c-.07.09-.09.11-.11.14-.77,1.06-1.57,2.1-2.28,3.2-.47.71-.82,1.5-1.21,2.26-.1.2-.14.43-.17.65-.03.23.05.3.28.25.47-.1.86-.36,1.16-.71.73-.86,1.46-1.74,2.12-2.65.38-.53.65-1.14.96-1.72.04-.08.06-.24.01-.31-.23-.37-.49-.72-.77-1.11ZM57.24,21.15c-.79-.27-1.04-.52-.95-1.02.05-.25.17-.5.33-.7.21-.27.56-.25.88-.23.01-.06.03-.11.03-.16.08-.57-.16-.77-.71-.6-.43.13-.76.39-1.03.74-.7.91-1.23,1.92-1.67,2.98-.13.33-.15.71-.16,1.07,0,.35.22.55.56.53.2-.01.41-.07.58-.16,1.02-.54,1.62-1.44,2.14-2.45ZM29.75,31.71c1.01.69,2.08,1.03,3.23,1.12.74.05,1.46-.04,2.12-.41.47-.26.84-.62,1.14-1.11-2.22-.57-4.36-.59-6.5.41ZM33.42,34.22c-.13-.16-.21-.32-.33-.38-.38-.19-.98-.11-1.25.22-.46.55-.91,1.11-1.29,1.71-.31.48-.52,1.03-.76,1.55-.03.06,0,.2.03.21.5.24.94.56,1.29,1.02.78-.66,1.25-1.52,1.78-2.35-.42-.27-.76-.58-.67-1.11.11-.6.63-.73,1.21-.88ZM36.71,31.14c.37.2.35.18.62-.09.69-.7,1.39-1.38,2.1-2.06.22-.21.48-.38.72-.56-.73-.98-3.01-1.98-3.7-1.65.67,1.42,1.04,2.85.26,4.36ZM66.45,35.29s-.02,0-.03.01c-.86.97-1.57,2.03-1.91,3.3-.06.21-.09.43-.09.65,0,.3.18.42.47.32.08-.02.15-.06.22-.1.34-.21.6-.49.79-.84.08-.15.13-.33.15-.51.05-.4.06-.8.12-1.2.08-.55.19-1.09.28-1.63ZM33.69,35.13c.12-.04.21-.04.27-.08.22-.18.45-.36.63-.58.41-.5.79-1.04,1.19-1.55.36-.45.73-.89,1.1-1.34q-.3-.18-.49.08c-.53.74-1.24,1.22-2.14,1.39-.38.07-.78.09-1.17.14.54.52.69,1.17.62,1.95ZM36.56,20.12c.23,0,.41.03.57,0,.99-.2,1.63-.86,2.16-1.66.13-.19.11-.42,0-.63-.06-.12-.15-.18-.29-.12-.21.08-.44.14-.63.26-.83.5-1.34,1.26-1.83,2.16ZM66.37,37.78s.08.02.11.03c.4-.78.8-1.56,1.19-2.34.1-.19.14-.41.19-.63.01-.05-.01-.15-.06-.18-.27-.18-.85.04-.93.35-.12.47-.25.95-.34,1.43-.08.44-.12.89-.17,1.34ZM10.52,23.23c-.98.04-1.9.12-2.79.47.43.51.75.74,1.35.54.57-.19,1.05-.49,1.44-1.01ZM40.21,36.24s-.06.03-.07.04c-.28.43-.58.85-.82,1.3-.12.22-.15.5-.18.76-.02.17.08.25.27.2.39-.1.64-.43.75-.73.17-.48.16-1.03.06-1.56ZM33.82,20.52c-.44.43-.87.82-1.27,1.23-.13.13-.21.32-.28.49-.02.06.03.18.09.24.03.03.16.02.21-.02.29-.22.57-.45.85-.69.07-.06.13-.16.16-.25.09-.31.16-.62.24-.99ZM30.82,38.72c-.31-.42-.69-.7-1.15-.9-.13.35-.06.77.15.94.24.2.63.19,1-.04Z"/>
      <path fill="white" d="M52.01,16.97c0-.87.67-1.62,1.54-1.74.63-.09,1.15.47.98,1.08-.08.3-.2.6-.35.87-.16.29-.43.48-.77.53-.12.02-.24.04-.37.07-.65.15-1.03-.15-1.03-.82Z"/>
      <path fill="white" d="M57.46,32.15c0,.92-.82,1.61-1.9,1.37-.24-.05-.38-.23-.42-.46-.19-1.19.26-1.82,1.5-2.02.28-.04.58.16.68.46.07.21.1.44.14.66Z"/>
      <path fill="white" d="M40.06,16.93c-.03.05-.06.13-.12.26-.3-.2-.59-.37-.86-.57-.1-.07-.16-.1-.29-.07-.34.07-.69.12-1.04.15-.07,0-.19-.07-.21-.13-.04-.14.08-.15.19-.17.45-.06.89-.14,1.31-.2.32.23.66.47,1.02.73Z"/>
    </g>
  </g>
</svg>