<?xml version="1.0" encoding="UTF-8"?>
<svg id="Layer_2" xmlns="http://www.w3.org/2000/svg" viewBox="0 0 83 71.71">
  <g id="Layer_1-2" data-name="Layer_1">
    <g>
      <path fill="white" d="M41.32,71.71c-8.55-.02-15.03-1.68-21.22-4.7-1.51-.74-1.96-1.66-1.83-3.26,1.25-15.49,8.43-27.38,21.99-34.94,13.17-7.34,26.81-7.37,40.47-1.05,1.51.7,2.37,1.42,2.26,3.47-1.24,23.61-21.29,40.76-41.67,40.49ZM58.84,30.52c7.69,9.82,7.09,19.98-1.29,25.68-4.05,2.75-8.5,3.71-13.26,2.57-6.62-1.59-10.63-5.97-12.53-12.75-.49.77-.88,1.2-1.07,1.69-1.31,3.55-2.76,7.06-3.79,10.69-.82,2.9-.59,3.02,2.34,4,12.73,4.23,24.32,2.12,34.49-6.63,6.16-5.3,9.69-12.21,10.84-20.26.1-.68-.18-1.88-.63-2.09-4.68-2.16-9.64-3.06-15.09-2.9Z"/>
      <path fill="white" d="M12.43,61.98c-5.66-4.7-9.68-10.05-12.43-16.71,3.72-.82,7.24-1.59,11-2.41-2.12-3.92-4.12-7.62-6.2-11.48h13.35c-1.04-4.13-2.09-8.26-3.26-12.89,4.5,1.27,8.63,2.45,13.01,3.69v-13.42c4.08,2.31,7.77,4.4,11.77,6.67,1.11-4.32,2.17-8.43,3.32-12.92,3.38,3.19,6.49,6.12,9.77,9.21,2.11-3.87,4.12-7.58,6.38-11.72,2.47,3.85,4.75,7.42,7.2,11.23,2.58-2.76,5.02-5.37,7.62-8.16,4.47,5.67,7.14,11.81,8.43,18.96-15.56-6.46-30.7-6.36-45.25,1.86-14.58,8.24-22.58,21.07-24.73,38.08Z"/>
    </g>
  </g>
</svg>