<?xml version="1.0" encoding="UTF-8"?>
<svg id="Layer_2" xmlns="http://www.w3.org/2000/svg" viewBox="0 0 71.84 75.52">
  <g id="Layer_1-2" data-name="Layer_1">
    <path fill="white" d="M68.28,45.71c-5.25,1.94-6.66,6.2-8.04,10.43-1.55,4.73-3.36,9.29-6.85,12.99-5.31,5.63-12.11,7.96-19.51,5.27-3.63-1.32-6.27-4.04-8.76-6.89-2.89-3.3-5.89-6.47-10.18-8.02-3.82-1.38-7.8-1.59-11.79-1.67-3.04-.07-3.05,0-3.07-2.98,0-1.14.12-2.28.04-3.42-.08-1.14.44-1.37,1.44-1.36,3.28.04,6.56.03,9.85,0,.63,0,1.65.34,1.64-.79,0-1.11-.97-1.11-1.8-1.11-3.18,0-6.36-.04-9.55.02-1.16.02-1.62-.31-1.56-1.54.07-1.41-.09-2.83-.12-4.25-.03-1.19.39-1.86,1.75-1.81,2.47.08,4.95.04,7.42.04.79,0,1.66-.04,1.66-1.09,0-1.1-.95-1.03-1.68-1.07-1.19-.07-2.38-.07-3.57-.06-1.14,0-1.65-.52-1.61-1.66.04-1.14.08-2.29.02-3.42-.06-1.26.51-1.66,1.71-1.65,3.08.04,6.16.01,9.27.01.41-1.3.78-2.47,1.15-3.64.25-.8-.1-1.27-.84-1.54-2.36-.87-4.7-1.8-7.08-2.6-1.03-.34-1.16-1.04-.79-1.74.22-.42,1.09-.88,1.48-.76,1.84.61,3.64,1.37,5.42,2.15,3.31,1.45,3.3,1.47,5.27-1.4,1.61-2.34,1.62-2.35-.48-4.28-1.61-1.48-3.27-2.9-4.88-4.38-.7-.64-1.28-1.33-.36-2.28.67-.7,1.25-.51,1.84.04,1.99,1.83,4.02,3.62,5.96,5.51,1.52,1.47,1.45,1.5,3.07.22.96-.76,1.99-1.42,3.07-2.18-1.52-2.98-3.02-5.98-4.58-8.95-.43-.83-.63-1.56.3-2.07.96-.53,1.5.1,1.9.89,1.32,2.58,2.66,5.14,3.92,7.75.51,1.05.99,1.54,2.28.97,1.23-.54,2.63-.79,3.99-.96.95-.12,1.18-.5,1.14-1.37-.13-3.04-.21-6.08-.31-9.12-.03-.93-.13-1.86,1.26-1.92,1.32-.05,1.49.85,1.51,1.77.08,2.94.13,5.89.1,8.83-.01,1.11.08,1.82,1.48,1.81.98,0,1.97.27,2.92.55,1.03.3,1.44-.12,1.76-1.03,1.07-2.99,2.2-5.96,3.33-8.93.3-.78.5-1.76,1.71-1.47,1.15.27,1.48,1.15.94,2.5-.94,2.33-1.91,4.65-2.86,6.98-.39.96-.76,1.92-1.18,2.96,1.43.98,2.81,1.98,4.25,2.88.28.17.95.12,1.19-.11,2-1.89,3.94-3.84,5.89-5.77.61-.6,1.2-1.21,1.79-1.83.61-.64,1.25-.66,1.88-.09.68.62.49,1.26-.08,1.86-2.29,2.35-4.53,4.74-6.88,7.03-1.41,1.38-1.45,1.46-.3,3.01.62.83,1.05,1.79,1.56,2.69.23.4.45.8.7,1.25,3.2-1.28,6.27-2.52,9.34-3.75.53-.21,1.06-.41,1.61-.56.74-.2,1.45-.25,1.69.73.21.84.07,1.42-.88,1.78-3.25,1.2-6.46,2.51-9.7,3.71-.92.34-1.34.72-.97,1.74.24.66.35,1.38.44,2.08.31,2.33.3,2.34,2.7,2.34,2.9,0,5.8,0,8.71,0,.74,0,1.49.02,1.44,1.09-.05,1.02-.68,1.24-1.55,1.24-3.14-.02-6.28.06-9.42-.07-1.48-.06-1.96.55-2.22,1.85-1.1,5.5-4.36,9.43-9.22,12.01-8.77,4.66-19.55,1.7-24.33-6.72-.97-1.7-1.49-3.68-2.01-5.59-.29-1.07-.58-1.69-1.84-1.57-1.13.11-2.28.04-3.42-.01-.95-.05-1.25.34-1.19,1.26.42,6.49,2.81,11.95,8.15,15.92,4.4,3.27,9.31,4.98,14.79,4.48,3.88-.35,7.27-2.03,10.16-4.71,2.47-2.3,4.9-4.65,7.53-6.74,2.66-2.11,5.78-2.25,8.93-1.14.62.22,1.13.75,2.08,1.41ZM24.81,35.2c.08.77.08,1.28.19,1.78,1.07,5.13,4.24,8.68,8.78,10.92,6.12,3.02,11.93,1.78,17.35-1.95,3.11-2.14,4.94-5.21,5.85-8.84.35-1.41-.03-1.84-1.45-1.84-1.09,0-2.2.08-3.28-.06-1.37-.18-1.9.35-2.27,1.65-1.08,3.78-3.81,5.94-7.5,6.89-3.67.94-7.09.49-9.88-2.36-1.26-1.29-2.01-2.83-2.28-4.65-.08-.55-.6-1.42-1.01-1.47-1.43-.18-2.9-.07-4.51-.07ZM48.53,35.23c-2.03.41-3.92-.64-5.65.87-.67.59-1.04-.1-1.06-.98-.02-1-.09-2.15-.61-2.94-1.06-1.63-2.8-2.31-4.72-1.95-1.87.35-3.3,1.44-3.93,3.32-1.08,3.23.41,6.58,3.51,8.03,3.11,1.45,7.16.72,9.92-1.78,1.28-1.16,2.33-2.44,2.54-4.57ZM52.93,20.95c-1.47,1.43-2.87,2.58-3.96,3.98-.3.39.25,1.54.58,2.26.12.26.82.47,1.14.36,1.34-.45,2.67-.98,3.94-1.61.32-.16.67-.92.54-1.17-.65-1.29-1.45-2.5-2.25-3.81ZM36.87,17.34s-.02,0-.03,0c0-.47-.04-.95,0-1.42.13-1.35-.56-1.66-1.72-1.39-1.1.26-2.22.48-3.29.85-.26.09-.54.83-.42,1.12.45,1.14,1.02,2.23,1.62,3.3.18.32.59.69.92.71,2.16.14,2.9-.6,2.91-2.75,0-.14,0-.28,0-.43ZM16.55,32.9c2.01,0,3.8.07,5.57-.06.37-.03.88-.77.97-1.25.12-.65.13-1.75-.23-1.98-1.1-.69-2.38-1.12-3.64-1.49-.34-.1-1.1.25-1.24.57-.54,1.28-.91,2.63-1.43,4.21ZM56.5,28.02c-1.95.77-3.64,1.35-5.24,2.14-.41.2-.66,1.05-.69,1.62-.02.37.47,1.09.76,1.11,1.96.1,3.92.05,6.08.05-.33-1.77-.6-3.24-.91-4.92ZM51.02,18.9c-1.53-1.02-2.83-1.89-4.32-2.88-.69,1.81-1.36,3.28-1.76,4.82-.12.45.44,1.22.88,1.64.32.3,1.2.51,1.42.31,1.25-1.14,2.38-2.42,3.78-3.89ZM26.43,24.7c-1.25-1.12-2.48-2.22-3.88-3.48-1.05,1.43-2.01,2.75-3.1,4.23,1.67.65,2.92,1.21,4.23,1.62.37.12,1.02-.05,1.3-.33.55-.56.94-1.28,1.46-2.03ZM42.32,20.24c.63-1.64,1.24-3.22,1.91-4.97-.64-.15-1.18-.26-1.7-.4-3.85-1.04-3.11-.2-3.11,2.56,0,2.55.04,2.55,2.9,2.81ZM24.61,19.35c1.23,1.16,2.26,2.2,3.36,3.14.25.21.83.24,1.15.11,1.75-.71,1.96-1.36,1.08-3.02-.48-.91-.96-1.83-1.55-2.96-1.37.92-2.63,1.77-4.05,2.73ZM36.85,27.52c.16-.08.31-.17.47-.25-.1-1.44-.12-2.9-.36-4.32-.05-.32-.87-.68-1.35-.69-.32,0-1,.71-.94.85.66,1.5,1.43,2.95,2.17,4.41ZM26.33,28.26c2.09.76,3.88,1.42,5.68,2.07.07-.13.14-.26.21-.4-1.4-1.2-2.79-2.41-4.26-3.67-.57.7-.98,1.2-1.63,2ZM30.32,32.78c.03-.12.05-.24.08-.36-1.68-.63-3.35-1.27-5.13-1.94-.14.86-.26,1.54-.38,2.29h5.44ZM30.09,24.5c1.39,1.29,2.69,2.48,3.98,3.68-.22-1.22-.67-2.25-1.14-3.27-.76-1.66-1.04-1.72-2.85-.41ZM44.01,29.62c.1.16.19.32.29.47.71-.3,1.42-.6,2.14-.89,1.59-.64,1.61-.78.52-2.09-.98.83-1.96,1.67-2.94,2.51ZM43.81,23.47c-.58,1.57-1.07,2.86-1.55,4.16.1.06.19.12.29.18.93-1,1.85-2,2.85-3.08-.52-.41-.91-.72-1.59-1.25ZM39.64,26.37c.1,0,.2.02.31.02.36-.91.73-1.82,1.07-2.74.47-1.29.18-1.58-1.37-1.32v4.04ZM48.55,31.04c-1.46.56-2.68,1.04-3.91,1.51.03.09.05.18.08.26h4.08c-.08-.6-.15-1.05-.25-1.78Z"/>
  </g>
</svg>