<?xml version="1.0" encoding="UTF-8"?>
<svg id="Layer_2" xmlns="http://www.w3.org/2000/svg" viewBox="0 0 68.62 68.78">
  <g id="Layer_1-2" data-name="Layer_1">
    <path fill="white" d="M19.8,56.96c-1.93,1.93-3.68,3.6-5.3,5.38-.29.32-.25,1.13-.1,1.63.54,1.77.11,3.22-1.4,4.2-1.54.99-3.09.74-4.38-.53-2.54-2.49-5.05-5-7.53-7.54-1.21-1.24-1.41-2.74-.53-4.22.93-1.56,2.36-2.01,4.15-1.55.56.14,1.46.16,1.79-.17,7.38-7.48,14.95-14.79,21.97-22.61,4.94-5.5,7.21-12.46,8.16-19.8.38-2.97.63-5.97,1.22-8.89.22-1.06,1.11-2.44,2.02-2.76.9-.32,2.55.16,3.29.88,8.21,8.04,16.34,16.17,24.38,24.39.77.79,1.36,2.57.99,3.46-.42,1.01-1.92,1.97-3.1,2.21-4.16.83-8.38,1.34-12.58,1.98-.26.04-.51.19-.9.33,3.32,5.54,1.25,10.54-1.61,15.29-4.2,6.98-9.99,12.28-17.69,15.23-1.53.59-3.24.91-4.88.98-4.26.17-6.94-2.16-7.65-6.36-.06-.38-.15-.76-.31-1.53ZM40.95,51.84c1.53-2.05,3.29-3.98,4.53-6.19,1.13-2.02,1.87-4.31,2.46-6.56.42-1.6-.58-2.5-2.27-2.35-.69.06-1.4.14-2.04.4-8.44,3.37-14.43,9.22-17.58,17.78-.39,1.06-.48,2.95.13,3.47.77.65,2.5.62,3.64.29,4.3-1.24,7.84-3.78,11.13-6.83Z"/>
  </g>
</svg>