<?xml version="1.0" encoding="UTF-8"?>
<svg id="Layer_2" xmlns="http://www.w3.org/2000/svg" viewBox="0 0 81 81">
  <g id="Layer_1-2" data-name="Layer_1">
    <g>
      <path fill="white" d="M21.58,37.89c1.64-.94,3.42-1.23,5.25-1.1.71.05,1.4.44,2.09.7.46.17.91.55,1.37.56,1.92.07,3.85.05,5.77.02.2,0,.54-.28.56-.45.06-.59.46-.68.9-.74,2.84-.35,5.62-.09,8.33.83.79.27,1.6.48,2.39.72.01-.06.03-.12.04-.19-.23-.13-.46-.27-.7-.39-3.24-1.64-6.72-2.46-10.31-2.86-4.88-.55-9.76-.42-14.6.44-1.93.34-3.81.87-5.5,1.92-.19.12-.31.34-.47.51.2.17.38.43.61.48,1.45.29,2.92.32,4.24-.44Z"/>
      <path fill="white" d="M40.5,0C18.13,0,0,18.13,0,40.5s18.13,40.5,40.5,40.5,40.5-18.13,40.5-40.5S62.87,0,40.5,0ZM16.14,37.84c1.55-4.73,3.11-9.46,6.19-13.48,1.08-1.42,2.29-2.71,3.82-3.65,2.63-1.6,4.54-1.17,6.31,1.34,1.23,1.75,2.03,3.69,2.52,5.74,3.8-.95,7.08-.18,9.75,2.66,1.67,1.77,2.8,3.9,3.81,6.1.24.51.41,1.06.66,1.57.13.27.34.52.57.72.28.25.62.43.93.64-.03.06-.05.12-.08.19-.8-.28-1.6-.52-2.38-.83-3.17-1.26-6.47-1.53-9.83-1.25-.44.04-1.02.02-.82.82.03.13-.34.47-.58.54-.5.14-1.03.2-1.55.22-1.84.06-3.68.1-5.47-.44-.3-.09-.61-.23-.84-.43-.81-.7-1.76-.86-2.79-.86-1.98,0-3.87.21-5.6,1.32-1.16.74-2.53.62-3.85.42-.47-.07-.92-.83-.76-1.31ZM15.1,38.9c.12-.07.35-.12.42-.06.11.1.2.33.16.45-.16.46.06.66.45.74,1.79.34,3.55.28,5.12-.74.8-.52,1.58-.98,2.52-1.11,1.43-.19,2.85-.24,4.25.21.3.1.62.21.85.42,1,.93,2.22,1.35,3.53,1.41,1.69.08,3.4.09,5.09.04.55-.02,1.19-.17,1.05-1.08-.03-.18.51-.61.81-.63,1.35-.1,2.72-.13,4.08-.11,2.94.06,5.65,1.01,8.3,2.21.45.2.94.4,1.43.43,1.27.08,2.09.97,3.09,1.52-.02.07-.05.14-.07.21-.57-.15-1.16-.24-1.71-.46-1.48-.58-2.93-1.22-4.39-1.83-1.83-.75-3.76-1.04-5.72-1.05-1.23,0-2.46,0-3.68.1-.92.07-.95.21-.6,1.05.17.4-.07.63-.4.72-.61.17-1.24.41-1.85.39-2.08-.07-4.17-.2-6.24-.39-.79-.07-1.45-.48-2.01-1.14-.82-.95-2.05-1.14-3.23-1.24-1.41-.11-2.82-.07-4.16.48-.31.13-.63.3-.85.54-.64.68-1.42,1.09-2.33,1.13-1.06.05-2.13.05-3.19-.01-.58-.03-.95-.36-.83-1.06.04-.22-.18-.49-.31-.82.08-.07.24-.24.42-.34ZM13.11,40.67c.26-.29.54-.4.9-.17.34.21.54.43.42.89-.05.21.04.58.2.69.34.24.75.46,1.16.52,1.41.18,2.81.05,4.17-.39.29-.09.64-.26.78-.51.66-1.14,1.76-1.45,2.92-1.62,1.73-.26,3.45-.18,5.09.5.41.17.87.36,1.17.67,1.58,1.63,3.63,2.1,5.76,2.29,1.33.12,2.68.06,4.02.02.44-.01.9-.14,1.32-.3.48-.18.66-.52.37-1.02-.42-.74-.36-.91.45-1.15,2.22-.65,4.45-.48,6.68-.05,2.13.41,4.14,1.13,6.09,2.1,1.33.66,2.8,1.02,4.2,1.55.53.2,1.06.46,1.53.79.56.4,1.06.89,1.58,1.34-.04.08-.08.16-.12.24-.96-.36-1.93-.68-2.86-1.09-.68-.3-1.33-.69-1.94-1.12-2.18-1.52-4.7-2.05-7.25-2.3-1.7-.17-3.44-.05-5.16-.05-.22,0-.45.08-.67.14-1.08.28-1.14.43-.58,1.36.35.58.27,1.01-.36,1.26-.58.23-1.21.43-1.83.47-3.04.2-5.99-.21-8.75-1.55-.57-.28-1.04-.78-1.56-1.18-.18-.14-.32-.34-.52-.43-2.54-1.16-5.15-1.74-7.92-.9-.64.19-1.07.53-1.35,1.2-.18.43-.72.82-1.19,1.01-1.78.71-3.61.63-5.39-.05-.31-.12-.7-.6-.67-.88.11-.99-.29-1.46-1.34-1.52.28-.31.48-.52.67-.74ZM11.18,42.98c.27-.45,1.35-.17,1.63.44.12.28.14.61.15.92.01.68.29,1.19.93,1.44,1.79.7,3.62.8,5.48.36.73-.17,1.23-.6,1.38-1.41.14-.73.64-1.24,1.38-1.34,2.47-.34,4.94-.57,7.27.63.62.32,1.25.7,1.74,1.18,1.6,1.55,3.55,2.33,5.66,2.79,2.18.48,4.36.94,6.61.62.51-.07,1.02-.24,1.48-.45.5-.22.61-.64.29-1.12-.09-.13-.18-.26-.26-.4-.48-.79-.27-1.59.62-1.74,1.19-.2,2.44-.33,3.64-.22,2.76.26,5.5.74,8.06,1.87,1.28.56,2.46,1.34,3.69,2.02.56.31,1.08.77,1.68.89,1.73.35,2.79,1.59,3.96,2.72.11.11.25.19.38.28-.05.08-.09.16-.14.24-.55-.29-1.17-.49-1.65-.87-3.28-2.66-7.13-3.81-11.23-4.31-1.51-.18-3.03-.31-4.55-.39-.53-.03-1.09.1-1.6.26-.78.24-.93.71-.51,1.41.18.31.41.6.6.91.39.67.31,1.24-.4,1.52-.81.31-1.7.56-2.55.56-3,0-5.92-.49-8.71-1.66-1.34-.56-2.54-1.37-3.47-2.47-1.51-1.79-3.54-2.4-5.7-2.71-1.55-.22-3.12-.23-4.66.24-.8.24-1.3.77-1.37,1.6-.08.95-.62,1.44-1.48,1.62-1.6.32-3.22.32-4.8-.08-1.36-.34-2.2-1.22-2.34-2.67-.06-.64-.45-1.02-1.03-1.23-.23-.08-.47-.14-.78-.23.21-.44.37-.86.59-1.24ZM64.34,54.67c-2.37-.8-4.81-1.37-7.35-1.25-.78.04-1.59.17-2.33.43-1.09.39-1.29,1.31-.58,2.22.21.27.47.49.7.74.98,1.07.77,2.13-.63,2.54-.92.28-1.91.41-2.88.42-3.91.04-7.56-1.02-10.9-2.98-1.86-1.1-3.53-2.53-5.3-3.8-1.69-1.22-3.5-2.19-5.54-2.67-1.82-.42-3.62-.27-5.37.32-1.17.39-1.46.86-1.46,2.08,0,1.45-.3,1.86-1.72,2.11-2.29.42-4.48.05-6.57-.93-1.17-.55-1.84-1.55-2.05-2.81-.26-1.53-.97-2.57-2.7-2.79.19-.72.35-1.36.52-1.98,1.33-.05,2.36.81,2.4,2.12.03,1.22.72,1.92,1.63,2.49,1.33.82,2.81.99,4.33.87.63-.05,1.27-.14,1.87-.31.81-.22,1.06-.61,1.1-1.43.06-1.4.34-1.76,1.69-2.17,2.93-.9,5.73-.4,8.38.93,1.18.59,2.35,1.35,3.25,2.3,1.62,1.71,3.52,2.82,5.76,3.45,2.42.68,4.84,1.27,7.37,1.11.85-.05,1.72-.23,2.51-.52,1.07-.4,1.21-1.19.5-2.1-.24-.3-.51-.59-.7-.92-.35-.61-.21-1.24.45-1.46.85-.28,1.75-.48,2.64-.52,3.4-.16,6.6.77,9.75,1.94,2.27.84,4.41,1.93,6.28,3.49.55.46,1.03,1.01,1.62,1.6-2.35-.88-4.5-1.77-6.71-2.51Z"/>
    </g>
  </g>
</svg>